<svg id="Layer_1" height="512" viewBox="0 0 512 512" width="512" xmlns="http://www.w3.org/2000/svg" data-name="Layer 1"><circle cx="256" cy="256" fill="#61c5e2" r="240"/><circle cx="163.5" cy="109.5" fill="#ed6337" r="42.5"/><circle cx="229" cy="232" fill="#ed6337" r="39"/><circle cx="229" cy="232" fill="#e2c224" r="23"/><circle cx="163.5" cy="113.5" fill="#e2c224" r="20.5"/><circle cx="221" cy="413" fill="#ed6337" r="42"/><circle cx="217" cy="416" fill="#e2c224" r="22"/><circle cx="105" cy="296" fill="#ed6337" r="39"/><circle cx="105" cy="296" fill="#e2c224" r="22"/><path d="m46 256c0-127.509 99.441-231.774 225-239.52-4.962-.306-9.96-.48-15-.48-132.548 0-240 107.452-240 240s107.452 240 240 240c5.04 0 10.038-.174 15-.48-125.559-7.746-225-112.011-225-239.52z" fill="#83e8ff"/><g fill="#284268"><path d="m152.9 353a6 6 0 0 0 6 6h27.02a6 6 0 0 0 0-12h-27.02a6 6 0 0 0 -6 6z"/><path d="m137.024 347h-19.224a6 6 0 0 0 0 12h19.226a6 6 0 0 0 0-12z"/><path d="m300 408h-25.76a6 6 0 0 0 0 12h25.76a6 6 0 0 0 0-12z"/><path d="m157.079 408h-.539a6 6 0 1 0 0 12h.539a6 6 0 0 0 0-12z"/><path d="m240 470a6.009 6.009 0 1 0 4.24 1.76 6.012 6.012 0 0 0 -4.24-1.76z"/><path d="m197 297a6 6 0 0 0 0-12h-22.921a6 6 0 0 0 0 12z"/><path d="m94 223a6 6 0 0 0 0 12h40.079a6 6 0 0 0 0-12z"/><path d="m181.306 235a6 6 0 1 0 0-12h-26.856a6 6 0 0 0 0 12z"/><path d="m74.231 223a6 6 0 0 0 0 12h.181a6 6 0 1 0 0-12z"/><path d="m225.712 173h14.288a6 6 0 0 0 0-12h-14.288a6 6 0 0 0 0 12z"/><path d="m203.8 173a6 6 0 0 0 0-12h-.18a6 6 0 1 0 0 12z"/><path d="m67.412 173h109.409a6 6 0 1 0 0-12h-109.409a6 6 0 0 0 0 12z"/><path d="m295 112h.46a6 6 0 0 0 0-12h-.46a6 6 0 0 0 0 12z"/><path d="m250.755 112h27.623a6 6 0 0 0 0-12h-27.623a6 6 0 0 0 0 12z"/><path d="m228.9 112h.7a6 6 0 0 0 0-12h-.7a6 6 0 0 0 0 12z"/><path d="m295 50h.039a6.02 6.02 0 1 0 -.039 0z"/><path d="m272.856 50h.345a6 6 0 0 0 0-12h-.345a6 6 0 0 0 0 12z"/><path d="m90.437 289.907a16.491 16.491 0 0 1 32.4 2.6 6 6 0 0 0 5.969 5.461c.181 0 .363-.009.547-.025a6 6 0 0 0 5.436-6.515 28.492 28.492 0 0 0 -55.979-4.494 6 6 0 0 0 11.626 2.971z"/><path d="m108.979 322.364a6 6 0 1 0 -1.079-11.951 16.569 16.569 0 0 1 -15.71-8.076 6 6 0 1 0 -10.344 6.081 28.644 28.644 0 0 0 24.6 14.061q1.264 0 2.533-.115z"/><path d="m228.39 426.947a6 6 0 1 0 7.826 9.1 28.492 28.492 0 0 0 -28.885-48.161 6 6 0 1 0 4.34 11.187 16.492 16.492 0 0 1 16.719 27.877z"/><path d="m200.593 435.113a6 6 0 0 0 4.545-9.913 16.574 16.574 0 0 1 -2.56-17.477 6 6 0 0 0 -10.962-4.883 28.625 28.625 0 0 0 4.426 30.186 5.985 5.985 0 0 0 4.551 2.087z"/><path d="m208.355 219.146a6 6 0 0 0 -7.626 3.718 28.493 28.493 0 0 0 49.232 27.019 6 6 0 0 0 -9.391-7.47 16.492 16.492 0 0 1 -28.5-15.641 6 6 0 0 0 -3.715-7.626z"/><path d="m255.987 229.042a28.624 28.624 0 0 0 -19.045-23.834 6 6 0 0 0 -3.908 11.346 16.574 16.574 0 0 1 11.026 13.8 6 6 0 1 0 11.927-1.312z"/><path d="m138.951 95.219a6 6 0 1 0 10.308 6.144 16.492 16.492 0 0 1 30.341 11.676 6 6 0 1 0 11.768 2.352 28.492 28.492 0 0 0 -52.412-20.172z"/><path d="m159.027 137.861a6 6 0 0 0 1.169-11.884 16.576 16.576 0 0 1 -12.777-12.2 6 6 0 1 0 -11.644 2.9 28.625 28.625 0 0 0 22.07 21.063 6.049 6.049 0 0 0 1.182.121z"/><path d="m270.308 213.634a6 6 0 0 0 -11.089 4.586 33.885 33.885 0 0 1 -56.506 35.608 6 6 0 1 0 -8.922 8.024 45.885 45.885 0 0 0 76.517-48.218z"/><path d="m196.774 205.534a6 6 0 0 0 8.474.449 34.049 34.049 0 0 1 35.782-6.052 6 6 0 1 0 4.639-11.067 46.1 46.1 0 0 0 -48.445 8.2 6 6 0 0 0 -.45 8.47z"/><path d="m259.723 421.924a6 6 0 0 0 -7.576 3.824 34.665 34.665 0 0 1 -67.58-10.067 6 6 0 1 0 -12 .268 46.657 46.657 0 0 0 46.62 45.617q.532 0 1.067-.011a46.746 46.746 0 0 0 43.292-32.055 6 6 0 0 0 -3.823-7.576z"/><path d="m255.607 402.747a6 6 0 0 0 5.362-8.685 46.884 46.884 0 0 0 -42.793-25.8 6 6 0 1 0 .267 12 34.8 34.8 0 0 1 31.793 19.169 6 6 0 0 0 5.371 3.316z"/><path d="m80.678 273.39a33.418 33.418 0 0 1 47.066-4.25 6 6 0 0 0 7.687-9.214 45.422 45.422 0 0 0 -68.17 58.039 6 6 0 1 0 10.322-6.12 33.479 33.479 0 0 1 3.095-38.455z"/><path d="m141.208 323.893a6 6 0 1 0 -9.214-7.687 33.586 33.586 0 0 1 -34.082 10.938 6 6 0 1 0 -3.012 11.615 45.038 45.038 0 0 0 11.324 1.444 45.663 45.663 0 0 0 34.984-16.31z"/><path d="m181.91 74.312a38.637 38.637 0 0 1 -22.88 72.639 6 6 0 1 0 -1.615 11.89 51.263 51.263 0 0 0 6.918.47 50.645 50.645 0 0 0 23.067-95.669 6 6 0 1 0 -5.491 10.67z"/><path d="m119.2 108.611a6.089 6.089 0 0 0 .815.056 6 6 0 0 0 5.938-5.193 38.827 38.827 0 0 1 26.647-31.653 6 6 0 1 0 -3.619-11.441 50.877 50.877 0 0 0 -34.925 41.478 6 6 0 0 0 5.144 6.753z"/><path d="m303 223h-16a6 6 0 0 0 0 12h16a6 6 0 0 0 0-12z"/><path d="m256 10a246.486 246.486 0 0 0 -228.19 153.79 5.94 5.94 0 0 0 -.824 2.061 244.27 244.27 0 0 0 -15.386 61.963 6.036 6.036 0 0 0 -.107.977 248.969 248.969 0 0 0 1.043 62.734c.015.176.04.35.07.521a243.69 243.69 0 0 0 17.761 62.27 5.946 5.946 0 0 0 .922 2.1 246.069 246.069 0 1 0 224.711-346.416zm165.463 411.463a232.467 232.467 0 0 1 -165.463 68.537 235.281 235.281 0 0 1 -60.995-8h25a6 6 0 0 0 0-12h-58.969a233.918 233.918 0 0 1 -70.5-48.537c-.483-.483-.95-.977-1.428-1.463h46.007a6 6 0 0 0 0-12h-57.035a233.243 233.243 0 0 1 -32.308-49h48.459a6 6 0 0 0 0-12h-53.931a231.665 231.665 0 0 1 -14.732-50h19.688a6 6 0 0 0 0-12h-21.488a237.775 237.775 0 0 1 -1.768-29c0-7.054.327-14.057.94-21h30a6 6 0 0 0 0-12h-28.631a232.211 232.211 0 0 1 12.785-50h10.355a6 6 0 1 0 0-12h-5.432a232.312 232.312 0 0 1 29.5-49h26.523a6 6 0 1 0 0-12h-16.448q4.331-4.83 8.945-9.463a234.909 234.909 0 0 1 54.263-40.537h106a6 6 0 0 0 0-12h-80.158a234.066 234.066 0 0 1 250.821 383.463z"/></g></svg>