<svg id="Layer_1" height="512" viewBox="0 0 512 512" width="512" xmlns="http://www.w3.org/2000/svg" data-name="Layer 1"><path d="m491.42 189.01a245.841 245.841 0 0 1 9.35 70.43c-61.2-5.31-62.09 28.42-90.21 34.97-24.94 5.81-33.04-12.79-56.69-2.96s-14.26 32.46-37.91 42.29-70.94 29.49-94.59 39.32-33.04-12.79-56.69-2.96-14.26 32.46-37.91 42.29-35.04-11.79-58.69-1.96l-1.28 1.06a244.543 244.543 0 0 1 -43.06-78.23c39.22-12.13 31.98-36.38 71.28-48.49 39.32-12.12 46.59 12.16 85.92.04s32.05-36.4 71.37-48.52 117.98-36.37 157.31-48.49c37.91-11.69 46.03 10.46 81.8 1.21z" fill="#ce467e"/><path d="m500.77 259.44a243.4 243.4 0 0 1 -9.51 64.33c-21.98 9.87-37.69 6.46-68.14 8.57-22.23 1.54-14.32 32.43-37.99 42.21s-33.02-12.86-56.68-3.07-71.01 29.35-94.68 39.13-14.32 32.43-37.99 42.22-33.01-12.86-56.68-3.08a29.335 29.335 0 0 0 -14.85 12.68 243.464 243.464 0 0 1 -57.45-50.94l1.28-1.06c23.65-9.83 35.04 11.79 58.69 1.96s14.26-32.46 37.91-42.29 33.04 12.8 56.69 2.96 70.94-29.49 94.59-39.32 14.26-32.46 37.91-42.29 31.75 8.77 56.69 2.96c28.12-6.55 29.01-40.28 90.21-34.97z" fill="#9be147"/><path d="m491.42 189.01c-35.77 9.25-43.89-12.9-81.8-1.21-39.33 12.12-117.98 36.36-157.31 48.49s-32.05 36.4-71.37 48.52-46.6-12.16-85.92-.04c-39.3 12.11-32.06 36.36-71.28 48.49a245.93 245.93 0 0 1 -12.51-79.75c37.05-11.92 44.74 11.14 82.01-1.05 37.43-12.23 29.82-35.52 67.25-47.75s45.02 11.05 82.45-1.19 112.28-36.71 149.7-48.94c34.69-11.34 30.7-32.18 59.72-44.91a245.124 245.124 0 0 1 39.06 79.34z" fill="#9be147"/><path d="m491.26 323.77a245.583 245.583 0 0 1 -24.8 57.29c-69.01 116.33-219.18 154.64-335.41 85.57-2.3-1.37-4.57-2.76-6.8-4.2a29.335 29.335 0 0 1 14.85-12.68c23.67-9.78 33.01 12.86 56.68 3.08s14.32-32.43 37.99-42.22 71.01-29.35 94.68-39.13 33.01 12.86 56.68 3.07 15.76-40.67 37.99-42.21c30.45-2.11 46.16 1.3 68.14-8.57z" fill="#ce467e"/><path d="m452.36 109.67c-29.02 12.73-25.03 33.57-59.72 44.91-37.42 12.23-112.28 36.71-149.7 48.94s-45.03-11.05-82.45 1.19-29.82 35.52-67.25 47.75c-37.27 12.19-44.96-10.87-82.01 1.05a243.88 243.88 0 0 1 34.31-122.57c.85-1.43 1.7-2.84 2.58-4.24 17.72-2.05 38.01-8.01 55.74-5.74 23.42 3 47.01 25.78 73.51 25.79 54.15.02 101.07-39.79 236.98-77.58h.01a243.269 243.269 0 0 1 38 40.5z" fill="#ce467e"/><path d="m380.95 45.37a246.538 246.538 0 0 1 33.4 23.8c-135.91 37.79-182.83 77.6-236.98 77.58-26.5-.01-50.09-22.79-73.51-25.79-17.73-2.27-38.02 3.69-55.74 5.74q5.745-9.27 12.18-17.85c17.32-3.38 38.04-4.09 53.94-11.61 21.35-10.1 36.52-39.83 61.95-47.26 20.46-5.99 107.33 19.07 167.86-1.51 1.42-.49 2.85-.95 4.3-1.36l23.81-6.72q4.425 2.385 8.79 4.98z" fill="#9be147"/><path d="m372.16 40.39-23.81 6.72c-1.45.41-2.88.87-4.3 1.36-60.53 20.58-147.4-4.48-167.86 1.51-25.43 7.43-40.6 37.16-61.95 47.26-15.9 7.52-36.62 8.23-53.94 11.61 72.02-96.2 204.77-126.36 311.86-68.46z" fill="#ce467e"/><path d="m109.446 414.655q-1.335-1.575-2.646-3.165a244.543 244.543 0 0 1 -43.06-78.23q-3.63-10.942-6.213-22.19c-7.459 8.389-15.661 16.584-33.787 22.19a244.543 244.543 0 0 0 43.06 78.23l1.28-1.06c17.11-7.112 27.805 2.232 41.366 4.225z" fill="#de688c"/><path d="m139.1 449.75a35 35 0 0 1 5.007-1.643 242.608 242.608 0 0 1 -34.661-33.452c-13.561-1.993-24.256-11.337-41.366-4.225l-1.28 1.06a243.464 243.464 0 0 0 57.45 50.94 29.335 29.335 0 0 1 14.85-12.68z" fill="#d8ff33"/><path d="m57.527 311.07a245.649 245.649 0 0 1 -6.3-57.56c0-.215.008-.431.011-.647-10.913-2.672-21.988-5.152-40.011.647a245.93 245.93 0 0 0 12.51 79.75c18.129-5.606 26.331-13.801 33.79-22.19z" fill="#d8ff33"/><path d="m164.25 462.43a246.206 246.206 0 0 1 -20.143-14.323 35 35 0 0 0 -5.007 1.643 29.335 29.335 0 0 0 -14.85 12.68c2.23 1.44 4.5 2.83 6.8 4.2a243.469 243.469 0 0 0 144.805 33.542 243.594 243.594 0 0 1 -104.8-33.542c-2.305-1.37-4.575-2.76-6.805-4.2z" fill="#de688c"/><path d="m51.241 252.863a243.877 243.877 0 0 1 34.299-121.923c.85-1.43 1.7-2.84 2.58-4.24 1.292-2.084 2.62-4.133 3.965-6.166-14.587.56-30.065 4.558-43.965 6.166-.88 1.4-1.73 2.81-2.58 4.24a243.88 243.88 0 0 0 -34.31 122.57c18.023-5.799 29.098-3.319 40.011-.647z" fill="#de688c"/><path d="m100.3 108.85q3.372-4.5 6.918-8.813c-14.681 4.963-32.048 5.911-46.918 8.813q-6.42 8.565-12.18 17.85c13.9-1.608 29.378-5.606 43.965-6.166q3.966-5.992 8.215-11.684z" fill="#d8ff33"/><path d="m276.208 11.834a244.806 244.806 0 0 0 -215.908 97.016c14.87-2.9 32.237-3.848 46.918-8.813a244.611 244.611 0 0 1 168.99-88.203z" fill="#de688c"/><g fill="#284268"><path d="m140.52 262.464a49.143 49.143 0 0 0 63.9-27.387 7.734 7.734 0 0 0 -4.3-10.041 48.982 48.982 0 0 0 -16.346-3.5 6 6 0 0 0 -.47 11.991 36.849 36.849 0 0 1 8.032 1.21 37.171 37.171 0 0 1 -42.032 18.024 37.12 37.12 0 0 1 15.614-15.161 6 6 0 0 0 -5.469-10.682 49.151 49.151 0 0 0 -23.229 25.5 7.736 7.736 0 0 0 4.3 10.046z"/><path d="m148.978 107.979a64.81 64.81 0 0 0 19.311 11.011 6 6 0 1 0 4.064-11.291 52.664 52.664 0 0 1 -12.748-6.682 52.915 52.915 0 0 1 29.689-15.771 6 6 0 1 0 -1.969-11.837 64.926 64.926 0 0 0 -39.485 22.808 8.369 8.369 0 0 0 1.138 11.762z"/><path d="m216.044 87.676a52.671 52.671 0 0 1 12.653 6.65 52.414 52.414 0 0 1 -34.941 16.374 6 6 0 0 0 .388 11.986c.132 0 .265 0 .4-.013a65.226 65.226 0 0 0 45.915-23.553 8.369 8.369 0 0 0 -1.137-11.761 64.81 64.81 0 0 0 -19.19-10.967 6 6 0 0 0 -4.087 11.282z"/><path d="m209.305 392.452a49.011 49.011 0 0 0 -16.347-3.5 6 6 0 0 0 -.468 11.991 36.84 36.84 0 0 1 8.031 1.21 37.169 37.169 0 0 1 -42.033 18.023 37.134 37.134 0 0 1 15.61-15.162 6 6 0 1 0 -5.469-10.681 49.149 49.149 0 0 0 -23.229 25.5 7.735 7.735 0 0 0 4.3 10.04 49.143 49.143 0 0 0 63.9-27.38 7.737 7.737 0 0 0 -4.295-10.041z"/><path d="m358.344 313.69a49.151 49.151 0 0 0 -23.229 25.5 7.736 7.736 0 0 0 4.3 10.041 49.149 49.149 0 0 0 13.6 3.313c.2.018.388.028.579.028a6 6 0 0 0 .565-11.973 36.961 36.961 0 0 1 -5.958-1.071 37.135 37.135 0 0 1 15.609-15.161 6 6 0 1 0 -5.469-10.681z"/><path d="m399.02 311.807a48.988 48.988 0 0 0 -16.347-3.5 6 6 0 1 0 -.473 11.993 36.8 36.8 0 0 1 8.033 1.211 36.829 36.829 0 0 1 -18.503 16.489 6 6 0 1 0 4.542 11.107 48.776 48.776 0 0 0 27.047-27.259 7.735 7.735 0 0 0 -4.299-10.041z"/><path d="m384.017 40.207a250.838 250.838 0 0 0 -371 277.786 251.068 251.068 0 0 0 242.547 189.072 252.163 252.163 0 0 0 62.38-7.881 250.978 250.978 0 0 0 181.04-305.177 249.3 249.3 0 0 0 -114.967-153.8zm-186.995-15.764a240.066 240.066 0 0 1 59.393-7.5 236.218 236.218 0 0 1 99.223 21.877l-8.921 2.518c-1.71.483-3.358 1.031-4.6 1.454-37.771 12.846-86.755 7.246-122.522 3.157-21.286-2.434-36.665-4.192-45.084-1.729-15.68 4.58-27.24 16.24-38.419 27.515-8.192 8.265-15.93 16.065-24.416 20.08-10.364 4.9-23.46 6.753-36.125 8.543l-.906.129a236.982 236.982 0 0 1 122.377-76.044zm-133.322 89.886c4.309-.775 8.8-1.421 13.53-2.089 13.552-1.915 27.565-3.895 39.577-9.577 10.392-4.915 19.245-13.844 27.807-22.479 10.106-10.193 20.557-20.734 33.262-24.45 6.1-1.782 22.735.12 40.353 2.135 36.9 4.217 87.427 10 127.749-3.719 1.105-.376 2.558-.859 4-1.266l21.46-6.057q3.245 1.8 6.45 3.7a242.847 242.847 0 0 1 23.7 16.048c-58.978 17.047-100.07 34.167-133.466 48-38.261 15.839-63.537 26.425-90.712 26.425h-.038c-13.192 0-26.291-6.745-38.959-13.143-10.948-5.529-22.268-11.309-33.792-12.785-13.179-1.69-27.119.732-40.6 3.1-1.185.208-2.348.41-3.508.61q1.572-2.247 3.187-4.453zm-13 19.671c.344-.579.7-1.147 1.051-1.723 4.732-.64 9.6-1.485 14.346-2.319 12.6-2.215 25.625-4.5 37-3.049 9.479 1.215 19.4 6.35 29.907 11.656 13.921 7.035 28.316 14.435 44.364 14.435h.041c29.561 0 57.139-11.546 95.3-27.351 34.61-14.335 77.564-32.179 140.239-49.791a236.567 236.567 0 0 1 30.3 31.686c-10.229 5.813-15.986 12.646-21.569 19.3-7.1 8.46-13.811 16.451-30.9 22.036l-149.706 48.94c-17.083 5.586-27.209 3.1-37.93.467-11.333-2.781-24.178-5.935-44.52.715s-28.848 16.785-36.353 25.725c-7.1 8.46-13.809 16.45-30.892 22.034s-27.208 3.1-37.929.468c-9.681-2.376-20.469-5.019-36.087-1.6a237.912 237.912 0 0 1 33.338-111.629zm-26.056 181.031a240.843 240.843 0 0 1 -7.472-57c14.413-3.788 23.679-1.539 33.416.851 6.354 1.56 13.183 3.237 21.542 3.237a73.057 73.057 0 0 0 22.977-3.952c20.341-6.65 28.848-16.783 36.353-25.724 7.1-8.46 13.809-16.45 30.892-22.034s27.209-3.1 37.93-.468c11.333 2.783 24.178 5.936 44.52-.715l149.706-48.945c20.343-6.651 28.851-16.785 36.357-25.726 5.322-6.338 10.385-12.368 19.659-17.327a238.155 238.155 0 0 1 33.29 67.269c-12.27 2.055-20.784-.154-29.717-2.485-11.7-3.052-24.952-6.511-46.247.054l-157.307 48.486c-21.279 6.559-30.387 16.9-38.423 26.03-7.665 8.706-14.906 16.929-32.951 22.491s-28.546 2.815-39.678-.091c-11.7-3.051-24.95-6.51-46.242.053s-30.387 16.9-38.423 26.029c-6.8 7.722-13.27 15.063-27.235 20.5q-1.582-5.216-2.947-10.533zm436.656 62.969a238.64 238.64 0 0 1 -327.184 83.48c-.381-.227-.754-.464-1.133-.693a24.3 24.3 0 0 1 8.412-5.487c9.608-3.971 15.9-1.521 23.871 1.584 8.789 3.424 18.75 7.305 32.81 1.492s18.38-15.595 22.193-24.227c3.458-7.829 6.19-14.013 15.8-17.986l94.672-39.137c9.608-3.972 15.9-1.52 23.871 1.583 8.79 3.425 18.752 7.305 32.812 1.492 13.863-5.73 18.666-17.419 22.525-26.811 4-9.745 6.254-14.453 13.589-14.961 8.507-.59 15.981-.744 22.576-.881 13-.269 23.931-.5 35.778-3.867a241.316 241.316 0 0 1 -20.592 44.419zm25.01-58.63c-13.509 5.518-24.952 5.76-40.444 6.081-6.732.139-14.361.3-23.158.906-15.1 1.048-19.955 12.872-23.859 22.372-3.478 8.464-6.763 16.46-16.009 20.282-9.609 3.972-15.9 1.52-23.872-1.583-8.789-3.424-18.751-7.3-32.812-1.492l-94.674 39.134c-14.059 5.811-18.38 15.6-22.193 24.227-3.458 7.829-6.19 14.014-15.8 17.986s-15.9 1.52-23.871-1.583c-8.789-3.425-18.751-7.305-32.81-1.492a35.658 35.658 0 0 0 -14.085 10.052 238.5 238.5 0 0 1 -46.316-40.636c7.458-1.9 13.05.245 19.855 2.881 5.5 2.131 11.465 4.44 18.6 4.44a36.6 36.6 0 0 0 14.215-3.013c14.047-5.84 18.349-15.633 22.144-24.272 3.442-7.836 6.161-14.026 15.763-18.017s15.9-1.553 23.875 1.535c8.8 3.406 18.765 7.267 32.814 1.426l94.593-39.326c14.047-5.839 18.349-15.632 22.145-24.271 3.443-7.837 6.162-14.026 15.764-18.018 10.411-4.329 16.855-2.163 25.014.579 8.111 2.726 17.305 5.815 30.733 2.686 11.513-2.682 19.027-9.318 26.294-15.737 11.759-10.385 23.911-21.1 56.465-19.473a236.11 236.11 0 0 1 -8.374 54.323zm-56.035-43.844c-6.714 5.929-12.512 11.049-21.074 13.045-10.111 2.355-16.948.058-24.187-2.375-8.847-2.972-18.874-6.34-33.443-.285-14.047 5.84-18.349 15.633-22.145 24.272-3.442 7.836-6.161 14.026-15.764 18.018l-94.593 39.326c-9.6 3.992-15.9 1.552-23.875-1.536-8.8-3.406-18.766-7.267-32.815-1.426s-18.348 15.632-22.143 24.271c-3.442 7.836-6.161 14.026-15.763 18.018s-15.9 1.551-23.875-1.536c-8.713-3.375-18.58-7.189-32.42-1.584a237.249 237.249 0 0 1 -36.82-66.754c17.115-6.542 25.234-15.756 32.478-23.983 7.665-8.706 14.906-16.93 32.951-22.492 18.03-5.557 28.545-2.813 39.677.092 11.695 3.05 24.95 6.51 46.243-.053s30.387-16.9 38.423-26.029c7.665-8.707 14.906-16.93 32.951-22.492l157.307-48.486c18.033-5.559 28.549-2.816 39.683.089 10.147 2.647 20.618 5.357 36.055 2.475.075.291.158.579.233.871a240.9 240.9 0 0 1 7.456 56.073c-37.146-1.695-52.272 11.64-64.543 22.478z"/></g></svg>